<svg width="189" height="54" viewBox="0 0 189 54" fill="none" xmlns="http://www.w3.org/2000/svg">
<path d="M1.71233 47.0566C1.71233 43.3593 4.2998 40.7147 7.87661 40.7147C9.1583 40.7008 10.4081 41.114 11.429 41.8891C12.4498 42.6643 13.1836 43.7572 13.5145 44.9955L12.0115 45.1984C11.7731 44.2853 11.2371 43.4777 10.4882 42.9034C9.73932 42.3291 8.82033 42.0209 7.87661 42.0275C5.17498 42.0275 3.2534 44.133 3.2534 47.0375C3.2534 49.9421 5.19401 52.073 7.87661 52.073C8.80496 52.075 9.70947 51.7792 10.4572 51.229C11.2049 50.6787 11.7564 49.9031 12.0305 49.0162L13.5018 49.3016C13.147 50.511 12.4038 51.57 11.3871 52.3151C10.3704 53.0601 9.13678 53.4497 7.87661 53.4238C4.2998 53.4428 1.69964 50.7539 1.71233 47.0566Z" fill="white"/>
<path d="M23.6995 47.0566C23.6995 43.3466 26.3631 40.7147 30.1302 40.7147C31.3896 40.726 32.6175 41.1102 33.6587 41.8187C34.7 42.5273 35.508 43.5285 35.9807 44.6959C36.4534 45.8633 36.5696 47.1446 36.3147 48.378C36.0598 49.6114 35.4451 50.7417 34.5484 51.626C33.6516 52.5104 32.513 53.1093 31.2761 53.347C30.0393 53.5847 28.7597 53.4507 27.599 52.9618C26.4383 52.4729 25.4485 51.6511 24.7544 50.6001C24.0604 49.5491 23.6933 48.316 23.6995 47.0566ZM35.0071 47.0566C34.9784 46.0957 34.6671 45.1646 34.1122 44.3797C33.5572 43.5947 32.7832 42.9908 31.8868 42.6434C30.9905 42.2959 30.0117 42.2204 29.0727 42.4263C28.1337 42.6321 27.2762 43.1102 26.6074 43.8007C25.9386 44.4912 25.4882 45.3636 25.3125 46.3087C25.1368 47.2538 25.2436 48.2297 25.6195 49.1145C25.9954 49.9992 26.6238 50.7536 27.426 51.2831C28.2283 51.8127 29.1689 52.0941 30.1302 52.092C32.984 52.092 35.0071 49.9802 35.0071 47.0566Z" fill="white"/>
<path d="M47.5386 41.1142H49.9675L53.8995 50.8744H54.0517L58.0027 41.1142H60.4189V53.0179H58.8842V43.0548H58.7447L54.7239 53.0179H53.2526L49.2319 43.0929H49.0797V53.0369H47.5323L47.5386 41.1142Z" fill="white"/>
<path d="M72.0625 41.1142H76.8063C79.4064 41.1142 81.0934 42.4841 81.0743 44.7608C81.0553 47.0375 79.3367 48.4074 76.8063 48.4074H73.5656V53.0179H72.0625V41.1142ZM76.8063 47.0439C78.5249 47.0439 79.5586 46.1497 79.5586 44.7608C79.5586 43.3719 78.5312 42.4587 76.8126 42.4587H73.5719V47.0375L76.8063 47.0439Z" fill="white"/>
<path d="M91.6716 48.4454V41.1142H93.219V48.4454C93.219 50.5699 94.6205 52.092 96.5675 52.092C98.5144 52.092 99.8906 50.5699 99.8906 48.4454V41.1142H101.425V48.4454C101.425 49.7389 100.912 50.9793 99.9969 51.8939C99.0823 52.8085 97.8419 53.3223 96.5485 53.3223C95.255 53.3223 94.0146 52.8085 93.1 51.8939C92.1854 50.9793 91.6716 49.7389 91.6716 48.4454Z" fill="white"/>
<path d="M115.523 42.4587H111.591V41.1079H121.009V42.4587H117.09V53.0116H115.549L115.523 42.4587Z" fill="white"/>
<path d="M131.511 41.1142H139.686V42.4587H133.065V46.175H139.007V47.5322H133.065V51.6671H139.851V53.0179H131.511V41.1142Z" fill="white"/>
<path d="M150.702 41.1142H155.883C158.47 41.1142 160.17 42.5348 160.17 44.7291C160.17 46.7522 158.584 48.1727 156.365 48.2742H156.168L160.487 53.0179H158.546L154.424 48.3566H152.23V53.0179H150.702V41.1142ZM155.883 47.0058C157.589 47.0058 158.635 46.1306 158.635 44.7291C158.635 43.3275 157.589 42.4651 155.883 42.4651H152.236V47.0058H155.883Z" fill="white"/>
<path d="M170.444 49.1494H171.966C171.966 50.9949 173.285 52.092 175.511 52.092C177.452 52.092 178.587 51.2485 178.587 49.9104C178.587 48.2742 176.931 48.0078 175.143 47.7161C172.993 47.38 170.634 46.8219 170.634 44.2408C170.634 42.0972 172.27 40.6957 175.143 40.6957C178.016 40.6957 179.836 42.2114 179.849 44.7291H178.365C178.365 43.0422 177.185 42.0465 175.143 42.0465C173.241 42.0465 172.169 42.8709 172.169 44.152C172.169 45.7248 173.754 46.0102 175.511 46.2829C177.673 46.638 180.121 47.1073 180.121 49.8089C180.121 52.0413 178.415 53.4428 175.492 53.4428C172.372 53.4428 170.444 51.8003 170.444 49.1494Z" fill="white"/>
<path d="M57.4255 32.7557H81.0679C93.8595 32.7557 104.818 23.1287 109.441 9.44302H57.4382L57.4255 32.7557Z" fill="#DA2128"/>
<path d="M49.7899 0H0V5.04177H47.2151C48.2951 3.48392 49.161 1.7882 49.7899 0Z" fill="#DA2128"/>
<path d="M45.2745 9.44302H0V32.7557H15.8546V16.2098H24.2259L34.2714 32.7557H51.0076L38.7551 14.1994C41.2118 13.0444 43.4247 11.4299 45.2745 9.44302Z" fill="#DA2128"/>
<path d="M57.4255 5.04177H110.177C110.632 3.39193 110.99 1.71694 111.249 0.0253601H57.4255V5.04177Z" fill="#DA2128"/>
<path d="M117.039 0V5.02275H185.677L189 0H117.039Z" fill="#DA2128"/>
<path d="M117.039 32.7557H130.807L150.201 9.44302H117.039V32.7557Z" fill="#DA2128"/>
<path d="M154.418 32.7557H168.63L184.085 9.44302H152.408L154.418 32.7557Z" fill="#DA2128"/>
</svg>
